<?xml version="1.0" encoding="utf-8"?>
<svg version="1.1" id="Layer_1" xmlns="http://www.w3.org/2000/svg" xmlns:xlink="http://www.w3.org/1999/xlink" x="0px" y="0px"
	 viewBox="0 0 1080 1080" style="enable-background:new 0 0 1080 1080;" xml:space="preserve">
<style type="text/css">
	.st0{fill:#3F48CD;}
</style>
<g>
	<path class="st0" d="M793.78,476.11c0,7.65-0.26,15.25-0.78,22.77c-3.84,56.82-21.99,109.72-50.88,155.12
		c-4,6.3-8.22,12.46-12.63,18.46c-1.66,2.26-3.34,4.48-5.04,6.68c-2.04,2.62-4.1,5.2-6.2,7.75c-3,3.65-6.08,7.24-9.25,10.76
		l-55.45-19.22l-8.1-2.8l-0.57-1.47l-0.13-0.67l-4.03-21.47l-0.06-0.31l-3.17-16.81h-0.01l-24.71-131.19
		c30.55-10.77,63.4-16.62,97.63-16.62c0.37,0,0.75,0,1.11,0.01c0.13-3.17,0.19-6.34,0.19-9.54c0-137.97-111.86-249.83-249.83-249.83
		c-137.99,0-249.83,111.86-249.83,249.83c0,44.65,11.71,86.56,32.24,122.82v0.01c36.68,64.83,101.46,111.63,177.8,123.85
		c5.95-30.52,16.65-59.36,31.27-85.71l156.98,28.65h0.01l11.68,2.14l0.85,0.15l10.33,1.89l11.93,4.13l0.26,1.44l0.62,0.1
		l22.89,58.48c-3.56,2.86-7.19,5.63-10.89,8.34c-1.57,1.16-3.15,2.3-4.73,3.41c-2.3,1.63-4.62,3.22-6.95,4.78
		c-5.85,3.93-11.81,7.65-17.91,11.18C579.48,791.7,522.6,808,461.89,808c-15.02,0-29.79-1-44.28-2.93
		C255.25,783.42,130,644.38,130,476.11c0-183.3,148.6-331.89,331.89-331.89S793.78,292.81,793.78,476.11z"/>
	<polygon class="st0" points="645.14,675.5 633.22,671.37 644.62,673.45 644.76,673.48 644.89,674.16 	"/>
	<path class="st0" d="M603.09,628.63l-128.18-23.4c27.99-37.45,64.68-67.99,107.08-88.64L603.09,628.63z"/>
	<circle class="st0" cx="461.89" cy="476.84" r="84.5"/>
	<line class="st0" x1="646.02" y1="677.04" x2="645.47" y2="675.62"/>
	<line class="st0" x1="645.47" y1="675.62" x2="645.14" y2="675.5"/>
	<polygon class="st0" points="950,980.9 856.38,952.96 843.38,949.08 722.31,828.01 694.04,755.79 681.85,724.62 673.6,703.54 
		696.02,711.3 717.02,718.58 788.79,743.46 918.67,873.35 922.57,886.77 	"/>
</g>
</svg>
